<svg version="1.1" xmlns="http://www.w3.org/2000/svg" xmlns:xlink="http://www.w3.org/1999/xlink" x="0px" y="0px"
	 width="18" height="18" viewBox="0 0 2263.304 2263.304" enable-background="new 0 0 2263.304 2263.304"
	 xml:space="preserve">
<g>
	<path fill="#414042" d="M1721.563,2263.304H541.741c-73.109,0-144.061-14.332-210.888-42.596
		c-64.517-27.289-122.447-66.343-172.18-116.076S69.885,1996.968,42.597,1932.45C14.332,1865.624,0,1794.671,0,1721.563V541.742
		c0-73.109,14.332-144.061,42.597-210.888c27.288-64.517,66.341-122.447,116.075-172.18s107.664-88.787,172.18-116.076
		C397.68,14.332,468.632,0,541.741,0h1179.822c73.108,0,144.061,14.332,210.888,42.597
		c64.518,27.288,122.447,66.342,172.181,116.075c49.734,49.734,88.788,107.664,116.077,172.181
		c28.265,66.826,42.596,137.779,42.596,210.888v1179.821c0,73.108-14.332,144.061-42.596,210.888
		c-27.289,64.517-66.343,122.447-116.077,172.181c-49.734,49.734-107.663,88.788-172.181,116.076
		C1865.624,2248.972,1794.671,2263.304,1721.563,2263.304z M541.741,117.547c-233.901,0-424.194,190.293-424.194,424.194v1179.821
		c0,233.902,190.292,424.195,424.194,424.195h1179.822c233.902,0,424.194-190.293,424.194-424.195V541.742
		c0-233.901-190.292-424.194-424.194-424.194H541.741z"/>
	<path fill="#414042" d="M1131.652,1694.093c-75.903,0-149.567-14.879-218.945-44.224c-66.982-28.331-127.125-68.877-178.76-120.512
		c-51.634-51.635-92.18-111.777-120.511-178.76c-29.344-69.378-44.224-143.043-44.224-218.945
		c0-75.903,14.879-149.567,44.224-218.945c28.331-66.982,68.877-127.125,120.511-178.76c51.635-51.634,111.778-92.18,178.76-120.511
		c69.378-29.344,143.043-44.224,218.945-44.224s149.566,14.879,218.945,44.224c66.982,28.331,127.126,68.877,178.759,120.511
		c51.635,51.635,92.181,111.778,120.512,178.76c29.345,69.378,44.224,143.042,44.224,218.945
		c0,75.903-14.879,149.567-44.224,218.945c-28.331,66.983-68.877,127.125-120.51,178.76
		c-51.635,51.635-111.779,92.181-178.761,120.512C1281.219,1679.214,1207.555,1694.093,1131.652,1694.093z M1131.652,686.759
		c-245.315,0-444.893,199.578-444.893,444.893s199.578,444.894,444.893,444.894s444.892-199.579,444.892-444.894
		S1376.967,686.759,1131.652,686.759z"/>
	<circle fill="#414042" cx="1769.348" cy="483.671" r="131.091"/>
</g>
</svg>
